<svg width="16" height="16" viewBox="0 0 16 16" fill="none" xmlns="http://www.w3.org/2000/svg">
<rect width="16" height="16" rx="8" fill="#DDDEE0"/>
<path d="M14 3.98763C11.78 3.76763 9.54667 3.6543 7.32 3.6543C6 3.6543 4.68 3.72096 3.36 3.8543L2 3.98763" stroke="#56666A" stroke-width="1.5" stroke-linecap="round" stroke-linejoin="round"/>
<path d="M5.66667 3.31398L5.81334 2.44065C5.92001 1.80732 6 1.33398 7.12667 1.33398H8.87334C10 1.33398 10.0867 1.83398 10.1867 2.44732L10.3333 3.31398" stroke="#56666A" stroke-width="1.5" stroke-linecap="round" stroke-linejoin="round"/>
<path d="M12.5667 6.09375L12.1333 12.8071C12.06 13.8537 12 14.6671 10.14 14.6671H5.86C4 14.6671 3.94 13.8537 3.86667 12.8071L3.43333 6.09375" stroke="#56666A" stroke-width="1.5" stroke-linecap="round" stroke-linejoin="round"/>
<path d="M6.88667 11H9.10667" stroke="#56666A" stroke-width="1.5" stroke-linecap="round" stroke-linejoin="round"/>
<path d="M6.33333 8.33398H9.66666" stroke="#56666A" stroke-width="1.5" stroke-linecap="round" stroke-linejoin="round"/>
</svg>
