<svg width="48" height="48" viewBox="0 0 48 48" fill="none" xmlns="http://www.w3.org/2000/svg">
<path d="M32 32L24 24L16 32" stroke="black" stroke-opacity="0.4" stroke-width="2" stroke-linecap="round" stroke-linejoin="round"/>
<path d="M24 24V42" stroke="black" stroke-opacity="0.4" stroke-width="2" stroke-linecap="round" stroke-linejoin="round"/>
<path d="M40.78 36.78C42.7307 35.7165 44.2717 34.0337 45.1598 31.9972C46.0479 29.9607 46.2325 27.6864 45.6845 25.5334C45.1364 23.3803 43.887 21.471 42.1334 20.1069C40.3797 18.7427 38.2218 18.0014 36 18H33.48C32.8747 15.6585 31.7464 13.4846 30.1799 11.642C28.6135 9.79927 26.6497 8.33567 24.4362 7.36118C22.2227 6.3867 19.8171 5.92669 17.4003 6.01573C14.9834 6.10478 12.6182 6.74057 10.4824 7.8753C8.34662 9.01003 6.49586 10.6142 5.06929 12.5671C3.64271 14.5201 2.67742 16.771 2.246 19.1508C1.81458 21.5305 1.92825 23.977 2.57847 26.3065C3.22869 28.636 4.39853 30.7877 6.00004 32.6" stroke="black" stroke-opacity="0.4" stroke-width="2" stroke-linecap="round" stroke-linejoin="round"/>
<path d="M32 32L24 24L16 32" stroke="black" stroke-opacity="0.4" stroke-width="2" stroke-linecap="round" stroke-linejoin="round"/>
</svg>
